<?xml version="1.0" encoding="UTF-8"?>
<svg width="18px" height="18px" viewBox="0 0 18 18" version="1.1" xmlns="http://www.w3.org/2000/svg" xmlns:xlink="http://www.w3.org/1999/xlink">
    <!-- Generator: Sketch 54.1 (76490) - https://sketchapp.com -->
    <title>恰客logo</title>
    <desc>Created with Sketch.</desc>
    <g id="页面1" stroke="none" stroke-width="1" fill="none" fill-rule="evenodd">
        <g id="恰客logo" fill="#FFFFFF" fill-rule="nonzero">
            <path d="M17.1428571,7.86 C17.1428571,7.86 17.1428571,7.77428571 17.1428571,7.73142857 C17.1469863,7.69726718 17.1469863,7.66273282 17.1428571,7.62857143 C17.1454563,7.59147404 17.1454563,7.55424024 17.1428571,7.51714286 C17.1465412,7.48295611 17.1465412,7.44847246 17.1428571,7.41428571 L17.0914286,7.31142857 C17.0665273,7.28340166 17.0462712,7.25157069 17.0314286,7.21714286 L16.9542857,7.13142857 L16.8857143,7.04571429 L16.8,6.97714286 L16.6971429,6.9 L16.6971429,6.9 L9.17142857,2.52 L9.12,2.52 L9.00857143,2.46857143 L8.90571429,2.46857143 L8.79428571,2.46857143 L8.68285714,2.46857143 L8.46,2.46857143 L8.34857143,2.46857143 L8.23714286,2.46857143 L8.13428571,2.46857143 L8.02285714,2.52 L7.97142857,2.52 L2.34857143,5.87142857 L2.34857143,1.17428571 C2.34857143,0.525745622 1.82282581,0 1.17428571,0 C0.525745622,0 0,0.525745622 0,1.17428571 L0,16.26 C0,16.9085401 0.525745622,17.4342857 1.17428571,17.4342857 C1.82282581,17.4342857 2.34857143,16.9085401 2.34857143,16.26 L2.34857143,8.59714286 L8.57142857,4.89428571 L14.7942857,8.59714286 L14.7942857,16.26 C14.7942857,16.9085401 15.3200313,17.4342857 15.9685714,17.4342857 C16.6171115,17.4342857 17.1428571,16.9085401 17.1428571,16.26 L17.1428571,7.86 Z" id="路径"></path>
            <path d="M8.57142857,10.3028571 C7.92288848,10.3028571 7.39714286,10.8286028 7.39714286,11.4771429 L7.39714286,16.26 C7.39714286,16.9085401 7.92288848,17.4342857 8.57142857,17.4342857 C9.21996866,17.4342857 9.74571429,16.9085401 9.74571429,16.26 L9.74571429,11.4771429 C9.74571429,10.8286028 9.21996866,10.3028571 8.57142857,10.3028571 Z" id="路径"></path>
        </g>
    </g>
</svg>